<svg width="229" height="95" viewBox="0 0 229 95" fill="none" xmlns="http://www.w3.org/2000/svg">
<path d="M37.4297 3.82812L35.2734 38.2344L24.5859 38.7031L24.6797 20.5625L19.8516 35.1875H15.7266L12.0234 22.1094L11.9766 37.2969L1.14844 37.625L1.61719 5.23438L13.6641 4.76562L18.4453 20.2812L24.8203 3.82812H37.4297ZM67.8516 20.0469C67.8516 21.4688 67.6875 22.8438 67.3594 24.1719C67.0312 25.4844 66.5547 26.7188 65.9297 27.875C65.3203 29.0312 64.5703 30.0938 63.6797 31.0625C62.8047 32.0156 61.8125 32.8359 60.7031 33.5234C59.6094 34.2109 58.4141 34.75 57.1172 35.1406C55.8203 35.5156 54.4453 35.7031 52.9922 35.7031C51.5859 35.7031 50.2422 35.5234 48.9609 35.1641C47.6953 34.8047 46.5078 34.3047 45.3984 33.6641C44.2891 33.0078 43.2812 32.2266 42.375 31.3203C41.4844 30.3984 40.7188 29.3828 40.0781 28.2734C39.4531 27.1484 38.9609 25.9453 38.6016 24.6641C38.2578 23.3828 38.0859 22.0469 38.0859 20.6562C38.0859 19.2969 38.25 17.9688 38.5781 16.6719C38.9062 15.3594 39.375 14.125 39.9844 12.9688C40.6094 11.8125 41.3594 10.75 42.2344 9.78125C43.1094 8.8125 44.0859 7.97656 45.1641 7.27344C46.2578 6.57031 47.4375 6.02344 48.7031 5.63281C49.9688 5.24219 51.3047 5.04688 52.7109 5.04688C54.9766 5.04688 57.0391 5.39844 58.8984 6.10156C60.7734 6.80469 62.3672 7.8125 63.6797 9.125C65.0078 10.4219 66.0312 12 66.75 13.8594C67.4844 15.7031 67.8516 17.7656 67.8516 20.0469ZM57.4453 20.6562C57.4453 19.9844 57.3438 19.3359 57.1406 18.7109C56.9531 18.0703 56.6719 17.5078 56.2969 17.0234C55.9219 16.5234 55.4531 16.125 54.8906 15.8281C54.3438 15.5156 53.7109 15.3594 52.9922 15.3594C52.2578 15.3594 51.6016 15.4922 51.0234 15.7578C50.4453 16.0234 49.9453 16.3906 49.5234 16.8594C49.1172 17.3125 48.8047 17.8516 48.5859 18.4766C48.3672 19.0859 48.2578 19.7344 48.2578 20.4219C48.2578 21.0781 48.3516 21.7344 48.5391 22.3906C48.7266 23.0469 49.0078 23.6406 49.3828 24.1719C49.7578 24.7031 50.2188 25.1328 50.7656 25.4609C51.3281 25.7891 51.9766 25.9531 52.7109 25.9531C53.4453 25.9531 54.1016 25.8125 54.6797 25.5312C55.2734 25.2344 55.7734 24.8438 56.1797 24.3594C56.5859 23.8594 56.8984 23.2891 57.1172 22.6484C57.3359 22.0078 57.4453 21.3438 57.4453 20.6562ZM97.3594 5.14062L88.7812 36.8281L77.1562 37.4844L66.6094 6.875L77.7188 5.84375L82.2188 23.6562L86.5781 4.4375L97.3594 5.14062ZM110.32 5L108.68 36.9219L98.7891 37.4375L97.8516 5.65625L110.32 5ZM138.398 19.0625C138.398 20.4219 138.305 21.7812 138.117 23.1406C135.445 23.3125 132.789 23.5938 130.148 23.9844C127.508 24.3594 124.867 24.7344 122.227 25.1094C122.633 26.2344 123.266 27.1328 124.125 27.8047C125 28.4766 126.039 28.8125 127.242 28.8125C127.867 28.8125 128.547 28.6953 129.281 28.4609C130.031 28.2266 130.773 27.9375 131.508 27.5938C132.242 27.2344 132.945 26.8516 133.617 26.4453C134.289 26.0391 134.867 25.6719 135.352 25.3438L134.227 35.9844C133.617 36.4531 132.953 36.8516 132.234 37.1797C131.531 37.5078 130.797 37.7734 130.031 37.9766C129.266 38.1797 128.492 38.3281 127.711 38.4219C126.93 38.5156 126.164 38.5625 125.414 38.5625C123.867 38.5625 122.453 38.3516 121.172 37.9297C119.891 37.5078 118.727 36.9219 117.68 36.1719C116.648 35.4062 115.742 34.5078 114.961 33.4766C114.18 32.4453 113.531 31.3203 113.016 30.1016C112.5 28.8828 112.109 27.5938 111.844 26.2344C111.578 24.875 111.445 23.5 111.445 22.1094C111.445 20.6562 111.578 19.2031 111.844 17.75C112.109 16.2969 112.508 14.8984 113.039 13.5547C113.586 12.2109 114.266 10.9688 115.078 9.82812C115.906 8.67188 116.867 7.66406 117.961 6.80469C119.055 5.94531 120.289 5.27344 121.664 4.78906C123.055 4.30469 124.586 4.0625 126.258 4.0625C127.648 4.0625 128.914 4.25781 130.055 4.64844C131.211 5.02344 132.234 5.55469 133.125 6.24219C134.031 6.91406 134.812 7.71875 135.469 8.65625C136.141 9.59375 136.688 10.625 137.109 11.75C137.547 12.8594 137.867 14.0391 138.07 15.2891C138.289 16.5234 138.398 17.7812 138.398 19.0625ZM129.023 17.8438C129.023 17.4062 128.977 16.9609 128.883 16.5078C128.789 16.0391 128.633 15.6172 128.414 15.2422C128.211 14.8672 127.938 14.5625 127.594 14.3281C127.25 14.0781 126.82 13.9531 126.305 13.9531C125.68 13.9531 125.125 14.125 124.641 14.4688C124.172 14.7969 123.766 15.2188 123.422 15.7344C123.078 16.2344 122.797 16.7812 122.578 17.375C122.359 17.9688 122.195 18.5156 122.086 19.0156L129.023 18.3594V17.8438ZM28.4766 77.6562C28.4766 78.9531 28.2344 80.0703 27.75 81.0078C27.2812 81.9453 26.6484 82.7422 25.8516 83.3984C25.0547 84.0547 24.1328 84.5938 23.0859 85.0156C22.0547 85.4219 20.9766 85.7422 19.8516 85.9766C18.7266 86.2109 17.5938 86.3672 16.4531 86.4453C15.3281 86.5234 14.2734 86.5625 13.2891 86.5625C12.3203 86.5625 11.3125 86.5234 10.2656 86.4453C9.23438 86.3828 8.20312 86.2656 7.17188 86.0938C6.14062 85.9219 5.125 85.6953 4.125 85.4141C3.125 85.1172 2.17969 84.75 1.28906 84.3125L1.24219 54.125C2.11719 53.7656 3.04688 53.4453 4.03125 53.1641C5.01562 52.8672 6.01562 52.625 7.03125 52.4375C8.0625 52.2344 9.08594 52.0859 10.1016 51.9922C11.1172 51.8828 12.1016 51.8281 13.0547 51.8281C14.1641 51.8281 15.2812 51.8984 16.4062 52.0391C17.5469 52.1797 18.6406 52.4141 19.6875 52.7422C20.7344 53.0703 21.7109 53.5 22.6172 54.0312C23.5234 54.5469 24.3125 55.1875 24.9844 55.9531C25.6719 56.7188 26.2031 57.6094 26.5781 58.625C26.9688 59.6406 27.1641 60.8125 27.1641 62.1406C27.1641 63.0156 27.0391 63.8359 26.7891 64.6016C26.5391 65.3672 26.1797 66.0547 25.7109 66.6641C25.2422 67.2734 24.6719 67.7969 24 68.2344C23.3281 68.6562 22.5703 68.9688 21.7266 69.1719C22.7422 69.4375 23.6641 69.8281 24.4922 70.3438C25.3359 70.8594 26.0469 71.4844 26.625 72.2188C27.2188 72.9531 27.6719 73.7812 27.9844 74.7031C28.3125 75.625 28.4766 76.6094 28.4766 77.6562ZM16.5703 64.2969C16.5703 63.8438 16.4766 63.4609 16.2891 63.1484C16.1016 62.8203 15.8672 62.5547 15.5859 62.3516C15.3203 62.1484 15.0234 62 14.6953 61.9062C14.3828 61.8125 14.1016 61.7656 13.8516 61.7656C13.5391 61.7656 13.2344 61.8125 12.9375 61.9062C12.6406 62 12.3516 62.1094 12.0703 62.2344L11.9297 67.4375C12.2891 67.4375 12.7344 67.4062 13.2656 67.3438C13.7969 67.2812 14.3047 67.1484 14.7891 66.9453C15.2891 66.7266 15.7109 66.4141 16.0547 66.0078C16.3984 65.5859 16.5703 65.0156 16.5703 64.2969ZM13.2422 71.9375C12.7891 71.9375 12.3516 71.9844 11.9297 72.0781L11.8359 77.4219C12.0703 77.4688 12.2969 77.5156 12.5156 77.5625C12.75 77.5938 12.9766 77.6094 13.1953 77.6094C13.5234 77.6094 13.8828 77.5781 14.2734 77.5156C14.6641 77.4375 15.0312 77.2969 15.375 77.0938C15.7188 76.875 16 76.5859 16.2188 76.2266C16.4531 75.8672 16.5703 75.3906 16.5703 74.7969C16.5703 74.2031 16.4531 73.7188 16.2188 73.3438C16 72.9688 15.7266 72.6797 15.3984 72.4766C15.0703 72.2578 14.7109 72.1172 14.3203 72.0547C13.9297 71.9766 13.5703 71.9375 13.2422 71.9375ZM57.2109 63.4062C57.2109 64.625 57.1016 65.7344 56.8828 66.7344C56.6797 67.7188 56.3516 68.625 55.8984 69.4531C55.4453 70.2812 54.8594 71.0469 54.1406 71.75C53.4219 72.4531 52.5547 73.125 51.5391 73.7656L57.1172 83.7031L46.5703 85.7656L42.9609 75.7812L40.0547 75.875L39.6328 85.625H29.5547C29.6328 82.0625 29.7031 78.5156 29.7656 74.9844C29.8438 71.4531 29.9297 67.9062 30.0234 64.3438C30.0547 62.5469 30.0859 60.7656 30.1172 59C30.1484 57.2344 30.2109 55.4531 30.3047 53.6562C31.3984 53.25 32.4766 52.9141 33.5391 52.6484C34.6016 52.3828 35.6641 52.1797 36.7266 52.0391C37.8047 51.8828 38.8906 51.7812 39.9844 51.7344C41.0938 51.6719 42.2266 51.6406 43.3828 51.6406C45.1641 51.6406 46.8828 51.8906 48.5391 52.3906C50.2109 52.875 51.6875 53.6094 52.9688 54.5938C54.25 55.5781 55.2734 56.8047 56.0391 58.2734C56.8203 59.7422 57.2109 61.4531 57.2109 63.4062ZM46.7109 64.1562C46.7109 63.5 46.6172 62.8984 46.4297 62.3516C46.2578 61.8047 45.9922 61.3359 45.6328 60.9453C45.2891 60.5391 44.8516 60.2266 44.3203 60.0078C43.8047 59.7734 43.1953 59.6562 42.4922 59.6562C42.1797 59.6562 41.875 59.6797 41.5781 59.7266C41.2812 59.7578 40.9922 59.8125 40.7109 59.8906L40.3359 68.6094H40.8984C41.5703 68.6094 42.25 68.5234 42.9375 68.3516C43.6406 68.1797 44.2656 67.9141 44.8125 67.5547C45.375 67.1953 45.8281 66.7344 46.1719 66.1719C46.5312 65.6094 46.7109 64.9375 46.7109 64.1562ZM87.8203 68.0469C87.8203 69.4688 87.6562 70.8438 87.3281 72.1719C87 73.4844 86.5234 74.7188 85.8984 75.875C85.2891 77.0312 84.5391 78.0938 83.6484 79.0625C82.7734 80.0156 81.7812 80.8359 80.6719 81.5234C79.5781 82.2109 78.3828 82.75 77.0859 83.1406C75.7891 83.5156 74.4141 83.7031 72.9609 83.7031C71.5547 83.7031 70.2109 83.5234 68.9297 83.1641C67.6641 82.8047 66.4766 82.3047 65.3672 81.6641C64.2578 81.0078 63.25 80.2266 62.3438 79.3203C61.4531 78.3984 60.6875 77.3828 60.0469 76.2734C59.4219 75.1484 58.9297 73.9453 58.5703 72.6641C58.2266 71.3828 58.0547 70.0469 58.0547 68.6562C58.0547 67.2969 58.2188 65.9688 58.5469 64.6719C58.875 63.3594 59.3438 62.125 59.9531 60.9688C60.5781 59.8125 61.3281 58.75 62.2031 57.7812C63.0781 56.8125 64.0547 55.9766 65.1328 55.2734C66.2266 54.5703 67.4062 54.0234 68.6719 53.6328C69.9375 53.2422 71.2734 53.0469 72.6797 53.0469C74.9453 53.0469 77.0078 53.3984 78.8672 54.1016C80.7422 54.8047 82.3359 55.8125 83.6484 57.125C84.9766 58.4219 86 60 86.7188 61.8594C87.4531 63.7031 87.8203 65.7656 87.8203 68.0469ZM77.4141 68.6562C77.4141 67.9844 77.3125 67.3359 77.1094 66.7109C76.9219 66.0703 76.6406 65.5078 76.2656 65.0234C75.8906 64.5234 75.4219 64.125 74.8594 63.8281C74.3125 63.5156 73.6797 63.3594 72.9609 63.3594C72.2266 63.3594 71.5703 63.4922 70.9922 63.7578C70.4141 64.0234 69.9141 64.3906 69.4922 64.8594C69.0859 65.3125 68.7734 65.8516 68.5547 66.4766C68.3359 67.0859 68.2266 67.7344 68.2266 68.4219C68.2266 69.0781 68.3203 69.7344 68.5078 70.3906C68.6953 71.0469 68.9766 71.6406 69.3516 72.1719C69.7266 72.7031 70.1875 73.1328 70.7344 73.4609C71.2969 73.7891 71.9453 73.9531 72.6797 73.9531C73.4141 73.9531 74.0703 73.8125 74.6484 73.5312C75.2422 73.2344 75.7422 72.8438 76.1484 72.3594C76.5547 71.8594 76.8672 71.2891 77.0859 70.6484C77.3047 70.0078 77.4141 69.3438 77.4141 68.6562ZM131.133 53.4688L125.648 85.0156L112.336 85.2969L109.477 69.4062L106.617 84.0781L93.3047 84.5469L87.7734 54.4062L99.3984 53.375L101.742 71.8906L104.883 54.7812H114.023L117.68 72.125L119.555 52.4375L131.133 53.4688ZM156 74C156 76.1406 155.625 77.9922 154.875 79.5547C154.141 81.1016 153.125 82.3828 151.828 83.3984C150.547 84.3984 149.039 85.1406 147.305 85.625C145.586 86.0938 143.734 86.3281 141.75 86.3281C140.984 86.3281 140.141 86.2266 139.219 86.0234C138.312 85.8203 137.391 85.5703 136.453 85.2734C135.516 84.9609 134.609 84.6328 133.734 84.2891C132.875 83.9297 132.109 83.5938 131.438 83.2812L132.469 74.0938C133.797 74.8906 135.266 75.5 136.875 75.9219C138.5 76.3281 140.094 76.5312 141.656 76.5312C141.953 76.5312 142.312 76.5234 142.734 76.5078C143.156 76.4766 143.555 76.4062 143.93 76.2969C144.32 76.1719 144.648 75.9922 144.914 75.7578C145.18 75.5234 145.312 75.1875 145.312 74.75C145.312 74.4531 145.219 74.2031 145.031 74C144.844 73.7812 144.602 73.6094 144.305 73.4844C144.008 73.3438 143.672 73.2422 143.297 73.1797C142.922 73.1016 142.555 73.0469 142.195 73.0156C141.836 72.9844 141.5 72.9688 141.188 72.9688C140.875 72.9688 140.625 72.9688 140.438 72.9688C139.094 72.9688 137.867 72.7578 136.758 72.3359C135.664 71.9141 134.719 71.3203 133.922 70.5547C133.141 69.7734 132.531 68.8359 132.094 67.7422C131.656 66.6328 131.438 65.4062 131.438 64.0625C131.438 62.2188 131.805 60.5703 132.539 59.1172C133.289 57.6484 134.281 56.4062 135.516 55.3906C136.766 54.3594 138.195 53.5703 139.805 53.0234C141.414 52.4766 143.078 52.2031 144.797 52.2031C145.562 52.2031 146.352 52.2344 147.164 52.2969C147.977 52.3438 148.781 52.4375 149.578 52.5781C150.391 52.7188 151.18 52.8984 151.945 53.1172C152.711 53.3359 153.438 53.6094 154.125 53.9375L153.234 63.4531C152.172 63.0938 151.055 62.7969 149.883 62.5625C148.727 62.3125 147.594 62.1875 146.484 62.1875C146.281 62.1875 146.016 62.1953 145.688 62.2109C145.375 62.2109 145.039 62.2344 144.68 62.2812C144.336 62.3125 143.984 62.3672 143.625 62.4453C143.266 62.5234 142.945 62.6328 142.664 62.7734C142.383 62.8984 142.156 63.0703 141.984 63.2891C141.812 63.5078 141.734 63.7656 141.75 64.0625C141.766 64.4062 141.891 64.6719 142.125 64.8594C142.375 65.0469 142.688 65.1875 143.062 65.2812C143.453 65.3594 143.875 65.3984 144.328 65.3984C144.797 65.3984 145.258 65.3906 145.711 65.375C146.164 65.3438 146.586 65.3203 146.977 65.3047C147.367 65.2734 147.688 65.2656 147.938 65.2812C149.188 65.3594 150.312 65.625 151.312 66.0781C152.312 66.5312 153.156 67.1328 153.844 67.8828C154.547 68.6328 155.078 69.5312 155.438 70.5781C155.812 71.6094 156 72.75 156 74ZM183.68 67.0625C183.68 68.4219 183.586 69.7812 183.398 71.1406C180.727 71.3125 178.07 71.5938 175.43 71.9844C172.789 72.3594 170.148 72.7344 167.508 73.1094C167.914 74.2344 168.547 75.1328 169.406 75.8047C170.281 76.4766 171.32 76.8125 172.523 76.8125C173.148 76.8125 173.828 76.6953 174.562 76.4609C175.312 76.2266 176.055 75.9375 176.789 75.5938C177.523 75.2344 178.227 74.8516 178.898 74.4453C179.57 74.0391 180.148 73.6719 180.633 73.3438L179.508 83.9844C178.898 84.4531 178.234 84.8516 177.516 85.1797C176.812 85.5078 176.078 85.7734 175.312 85.9766C174.547 86.1797 173.773 86.3281 172.992 86.4219C172.211 86.5156 171.445 86.5625 170.695 86.5625C169.148 86.5625 167.734 86.3516 166.453 85.9297C165.172 85.5078 164.008 84.9219 162.961 84.1719C161.93 83.4062 161.023 82.5078 160.242 81.4766C159.461 80.4453 158.812 79.3203 158.297 78.1016C157.781 76.8828 157.391 75.5938 157.125 74.2344C156.859 72.875 156.727 71.5 156.727 70.1094C156.727 68.6562 156.859 67.2031 157.125 65.75C157.391 64.2969 157.789 62.8984 158.32 61.5547C158.867 60.2109 159.547 58.9688 160.359 57.8281C161.188 56.6719 162.148 55.6641 163.242 54.8047C164.336 53.9453 165.57 53.2734 166.945 52.7891C168.336 52.3047 169.867 52.0625 171.539 52.0625C172.93 52.0625 174.195 52.2578 175.336 52.6484C176.492 53.0234 177.516 53.5547 178.406 54.2422C179.312 54.9141 180.094 55.7188 180.75 56.6562C181.422 57.5938 181.969 58.625 182.391 59.75C182.828 60.8594 183.148 62.0391 183.352 63.2891C183.57 64.5234 183.68 65.7812 183.68 67.0625ZM174.305 65.8438C174.305 65.4062 174.258 64.9609 174.164 64.5078C174.07 64.0391 173.914 63.6172 173.695 63.2422C173.492 62.8672 173.219 62.5625 172.875 62.3281C172.531 62.0781 172.102 61.9531 171.586 61.9531C170.961 61.9531 170.406 62.125 169.922 62.4688C169.453 62.7969 169.047 63.2188 168.703 63.7344C168.359 64.2344 168.078 64.7812 167.859 65.375C167.641 65.9688 167.477 66.5156 167.367 67.0156L174.305 66.3594V65.8438ZM212.695 63.4062C212.695 64.625 212.586 65.7344 212.367 66.7344C212.164 67.7188 211.836 68.625 211.383 69.4531C210.93 70.2812 210.344 71.0469 209.625 71.75C208.906 72.4531 208.039 73.125 207.023 73.7656L212.602 83.7031L202.055 85.7656L198.445 75.7812L195.539 75.875L195.117 85.625H185.039C185.117 82.0625 185.188 78.5156 185.25 74.9844C185.328 71.4531 185.414 67.9062 185.508 64.3438C185.539 62.5469 185.57 60.7656 185.602 59C185.633 57.2344 185.695 55.4531 185.789 53.6562C186.883 53.25 187.961 52.9141 189.023 52.6484C190.086 52.3828 191.148 52.1797 192.211 52.0391C193.289 51.8828 194.375 51.7812 195.469 51.7344C196.578 51.6719 197.711 51.6406 198.867 51.6406C200.648 51.6406 202.367 51.8906 204.023 52.3906C205.695 52.875 207.172 53.6094 208.453 54.5938C209.734 55.5781 210.758 56.8047 211.523 58.2734C212.305 59.7422 212.695 61.4531 212.695 63.4062ZM202.195 64.1562C202.195 63.5 202.102 62.8984 201.914 62.3516C201.742 61.8047 201.477 61.3359 201.117 60.9453C200.773 60.5391 200.336 60.2266 199.805 60.0078C199.289 59.7734 198.68 59.6562 197.977 59.6562C197.664 59.6562 197.359 59.6797 197.062 59.7266C196.766 59.7578 196.477 59.8125 196.195 59.8906L195.82 68.6094H196.383C197.055 68.6094 197.734 68.5234 198.422 68.3516C199.125 68.1797 199.75 67.9141 200.297 67.5547C200.859 67.1953 201.312 66.7344 201.656 66.1719C202.016 65.6094 202.195 64.9375 202.195 64.1562Z" fill="white"/>
<path d="M180.172 6.4836C179.313 6.4836 178.488 6.8251 177.88 7.43298C177.273 8.04085 176.931 8.86531 176.931 9.72498C176.931 10.5846 177.273 11.4091 177.88 12.017C178.488 12.6249 179.313 12.9664 180.172 12.9664C181.032 12.9664 181.857 12.6249 182.464 12.017C183.072 11.4091 183.414 10.5846 183.414 9.72498C183.414 8.86531 183.072 8.04085 182.464 7.43298C181.857 6.8251 181.032 6.4836 180.172 6.4836ZM162.345 30.7939C161.915 30.7939 161.503 30.9647 161.199 31.2686C160.895 31.5726 160.724 31.9848 160.724 32.4146V35.656C160.724 36.0858 160.895 36.4981 161.199 36.802C161.503 37.106 161.915 37.2767 162.345 37.2767H178.552C178.982 37.2767 179.394 37.106 179.698 36.802C180.002 36.4981 180.172 36.0858 180.172 35.656V32.4146C180.172 31.9848 180.002 31.5726 179.698 31.2686C179.394 30.9647 178.982 30.7939 178.552 30.7939H162.345ZM165.586 35.656C165.156 35.656 164.744 35.4853 164.44 35.1813C164.136 34.8774 163.966 34.4652 163.966 34.0353C163.966 33.6055 164.136 33.1933 164.44 32.8893C164.744 32.5854 165.156 32.4146 165.586 32.4146C166.016 32.4146 166.428 32.5854 166.732 32.8893C167.036 33.1933 167.207 33.6055 167.207 34.0353C167.207 34.4652 167.036 34.8774 166.732 35.1813C166.428 35.4853 166.016 35.656 165.586 35.656ZM172.069 34.0353C172.069 33.6055 172.24 33.1933 172.544 32.8893C172.848 32.5854 173.26 32.4146 173.69 32.4146H175.31C175.74 32.4146 176.152 32.5854 176.456 32.8893C176.76 33.1933 176.931 33.6055 176.931 34.0353C176.931 34.4652 176.76 34.8774 176.456 35.1813C176.152 35.4853 175.74 35.656 175.31 35.656H173.69C173.26 35.656 172.848 35.4853 172.544 35.1813C172.24 34.8774 172.069 34.4652 172.069 34.0353ZM159.103 9.72498C159.103 8.86531 159.445 8.04085 160.053 7.43298C160.661 6.8251 161.485 6.4836 162.345 6.4836C163.204 6.4836 164.029 6.8251 164.637 7.43298C165.245 8.04085 165.586 8.86531 165.586 9.72498C165.586 10.5846 165.245 11.4091 164.637 12.017C164.029 12.6249 163.204 12.9664 162.345 12.9664C161.485 12.9664 160.661 12.6249 160.053 12.017C159.445 11.4091 159.103 10.5846 159.103 9.72498Z" fill="white"/>
<path d="M180.172 0.000836948C178.28 0.000274917 176.429 0.551658 174.846 1.58742C173.263 2.62318 172.016 4.09832 171.259 5.83208C170.644 4.42505 169.705 3.18356 168.518 2.20919C167.331 1.23481 165.931 0.555248 164.431 0.226096C162.931 -0.103055 161.375 -0.0724396 159.889 0.315437C158.404 0.703314 157.031 1.43743 155.884 2.45772C154.736 3.478 153.847 4.75547 153.288 6.18558C152.729 7.61569 152.516 9.15782 152.668 10.6858C152.82 12.2137 153.331 13.6841 154.16 14.9765C154.989 16.269 156.112 17.3468 157.437 18.1218C156.5 18.4635 155.691 19.0852 155.119 19.9025C154.548 20.7198 154.241 21.6931 154.241 22.6905V24.3112H152.621V23.5008C152.621 23.2859 152.535 23.0798 152.383 22.9278C152.231 22.7759 152.025 22.6905 151.81 22.6905C151.595 22.6905 151.389 22.7759 151.237 22.9278C151.085 23.0798 151 23.2859 151 23.5008V31.6043C151 31.8192 151.085 32.0253 151.237 32.1773C151.389 32.3293 151.595 32.4146 151.81 32.4146C152.025 32.4146 152.231 32.3293 152.383 32.1773C152.535 32.0253 152.621 31.8192 152.621 31.6043V29.1733H154.241V37.2767C154.241 38.5662 154.754 39.8029 155.665 40.7147C156.577 41.6265 157.814 42.1388 159.103 42.1388H181.793C183.083 42.1388 184.319 41.6265 185.231 40.7147C186.143 39.8029 186.655 38.5662 186.655 37.2767V37.0855C186.655 37.6875 186.823 38.2777 187.14 38.7898C187.456 39.3019 187.909 39.7157 188.448 39.9849L193.31 42.4159C193.804 42.6628 194.353 42.7794 194.905 42.7545C195.457 42.7295 195.993 42.564 196.463 42.2735C196.933 41.983 197.321 41.5772 197.59 41.0947C197.859 40.6122 198 40.0689 198 39.5165V20.4507C198 19.8983 197.859 19.355 197.59 18.8725C197.321 18.3899 196.933 17.9842 196.463 17.6937C195.993 17.4032 195.457 17.2377 194.905 17.2127C194.353 17.1878 193.804 17.3043 193.31 17.5513L188.448 19.9823C187.909 20.2517 187.455 20.666 187.139 21.1788C186.822 21.6915 186.655 22.2823 186.655 22.885V22.6905C186.655 20.9256 185.715 19.381 184.308 18.5286C186.311 17.5891 187.933 15.9951 188.908 14.0094C189.883 12.0238 190.151 9.76517 189.669 7.60637C189.187 5.44757 187.984 3.51758 186.257 2.13489C184.531 0.752197 182.384 -0.000561069 180.172 0.000836948ZM173.69 9.72497C173.69 8.00564 174.373 6.35672 175.588 5.14097C176.804 3.92522 178.453 3.24222 180.172 3.24222C181.892 3.24222 183.541 3.92522 184.756 5.14097C185.972 6.35672 186.655 8.00564 186.655 9.72497C186.655 11.4443 185.972 13.0932 184.756 14.309C183.541 15.5247 181.892 16.2077 180.172 16.2077C178.453 16.2077 176.804 15.5247 175.588 14.309C174.373 13.0932 173.69 11.4443 173.69 9.72497ZM194.759 20.4507V39.5165L189.897 37.0855V22.8817L194.759 20.4507ZM159.103 21.0698H181.793C182.223 21.0698 182.635 21.2406 182.939 21.5445C183.243 21.8484 183.414 22.2607 183.414 22.6905V37.2767C183.414 37.7065 183.243 38.1188 182.939 38.4227C182.635 38.7266 182.223 38.8974 181.793 38.8974H159.103C158.674 38.8974 158.261 38.7266 157.957 38.4227C157.654 38.1188 157.483 37.7065 157.483 37.2767V22.6905C157.483 22.2607 157.654 21.8484 157.957 21.5445C158.261 21.2406 158.674 21.0698 159.103 21.0698ZM162.345 3.24222C164.064 3.24222 165.713 3.92522 166.929 5.14097C168.145 6.35672 168.828 8.00564 168.828 9.72497C168.828 11.4443 168.145 13.0932 166.929 14.309C165.713 15.5247 164.064 16.2077 162.345 16.2077C160.625 16.2077 158.977 15.5247 157.761 14.309C156.545 13.0932 155.862 11.4443 155.862 9.72497C155.862 8.00564 156.545 6.35672 157.761 5.14097C158.977 3.92522 160.625 3.24222 162.345 3.24222Z" fill="white"/>
</svg>
